<svg width="33.867mm" height="33.867mm" version="1.1" viewBox="0 0 33.867 33.867" xmlns="http://www.w3.org/2000/svg"><g transform="translate(-77.283 -93.986)"><rect x="77.358" y="94.061" width="33.717" height="33.717" ry="3.9638" stroke="#fffffe" stroke-linecap="round" stroke-linejoin="round" stroke-width=".15009" style="paint-order:normal"/><g stroke-width=".26458" aria-label="P"><path d="m83.521 123.23 4.089-24.63h9.7174c1.8601 0 3.3875 0.35679 4.5821 1.0704 1.2026 0.70556 2.0445 1.6877 2.5256 2.9465 0.48907 1.2508 0.60132 2.6939 0.33674 4.3296-0.2726 1.6436-0.86591 3.0908-1.7799 4.3416-0.90599 1.2427-2.0846 2.2129-3.5358 2.9104-1.4512 0.69753-3.1269 1.0463-5.0271 1.0463h-6.1937l0.68551-4.1732h5.3518c1.0102 0 1.8721-0.17238 2.5857-0.51714 0.72159-0.35278 1.2949-0.83785 1.7198-1.4552 0.42494-0.62538 0.70155-1.343 0.82983-2.1528 0.1363-0.82582 0.0922-1.5434-0.13229-2.1528-0.2245-0.60934-0.63741-1.0824-1.2387-1.4191-0.59331-0.34476-1.3911-0.51714-2.3933-0.51714h-3.5117l-2.0699 12.389c-6.5411 7.9839 0 0-6.5411 7.9839z" fill="#fff"/></g></g></svg>
